<svg width="114" height="87" viewBox="0 0 114 87" fill="none" xmlns="http://www.w3.org/2000/svg">
<g clip-path="url(#clip0_23_196)">
<path d="M91.8737 35.4052C90.7249 17.6355 78.354 0.5 55.6653 0.5C34.9136 0.5 18.9107 15.9074 18.0632 36.4695C6.70936 39.9982 0.510498 52.1349 0.510498 60.9688C0.510498 74.5702 11.8266 86.5 24.7248 86.5H42.2129C42.5697 86.5 42.9118 86.3584 43.1641 86.1064C43.4164 85.8544 43.5581 85.5126 43.5581 85.1562C43.5581 84.7999 43.4164 84.4581 43.1641 84.2061C42.9118 83.9541 42.5697 83.8125 42.2129 83.8125H24.7248C13.258 83.8125 3.20097 73.1377 3.20097 60.9688C3.20097 52.7692 10.3953 38.125 24.7248 38.125H28.7605C29.1173 38.125 29.4594 37.9834 29.7117 37.7314C29.964 37.4794 30.1057 37.1376 30.1057 36.7812C30.1057 36.4249 29.964 36.0831 29.7117 35.8311C29.4594 35.5791 29.1173 35.4375 28.7605 35.4375H24.7248C23.3553 35.4375 22.0612 35.5907 20.7994 35.8111C21.854 19.7129 34.1038 3.1875 55.6653 3.1875C78.7711 3.1875 89.2962 21.2986 89.2962 38.125V42.1562C89.2962 42.5126 89.4379 42.8544 89.6902 43.1064C89.9425 43.3584 90.2847 43.5 90.6415 43.5C90.9982 43.5 91.3404 43.3584 91.5927 43.1064C91.845 42.8544 91.9867 42.5126 91.9867 42.1562V38.1008C100.109 38.9904 110.82 47.6979 110.82 60.9688C110.82 71.2511 100.889 83.8125 89.2962 83.8125H69.1176C60.4059 83.8125 57.0105 80.4209 57.0105 71.7188V34.8543L67.9823 45.7924C68.1062 45.9209 68.2545 46.0235 68.4185 46.0942C68.5825 46.1648 68.759 46.2021 68.9376 46.2039C69.1162 46.2057 69.2934 46.172 69.4588 46.1046C69.6242 46.0373 69.7745 45.9377 69.901 45.8117C70.0275 45.6858 70.1276 45.5359 70.1955 45.3708C70.2633 45.2058 70.2976 45.0289 70.2963 44.8505C70.2951 44.6721 70.2582 44.4957 70.1879 44.3317C70.1177 44.1676 70.0154 44.0192 69.8871 43.8951L57.8849 31.9303C56.2868 30.3393 55.0465 30.3393 53.451 31.9303L41.4488 43.8951C41.2037 44.1485 41.0681 44.4879 41.0712 44.8403C41.0743 45.1926 41.2158 45.5296 41.4652 45.7788C41.7146 46.0279 42.052 46.1692 42.4047 46.1723C42.7574 46.1753 43.0972 46.0399 43.351 45.7951L54.32 34.8543V71.7188C54.32 81.942 58.8831 86.5 69.1176 86.5H89.2962C102.337 86.5 113.51 72.4605 113.51 60.9688C113.51 47.0824 102.149 36.2222 91.8737 35.4052Z" fill="#ADD8E6"/>
</g>
<defs>
<clipPath id="clip0_23_196">
<rect width="113" height="86" fill="white" transform="translate(0.510498 0.5)"/>
</clipPath>
</defs>
</svg>
